<svg width="176" height="37" viewBox="0 0 176 37" fill="none" xmlns="http://www.w3.org/2000/svg">
<path fill-rule="evenodd" clip-rule="evenodd" d="M18.6692 9.50859C17.9996 8.63146 17.1413 7.94296 16.085 7.45252C15.0287 6.96208 13.878 6.71686 12.6236 6.71686C11.1618 6.71686 9.87904 7.03753 8.78499 7.68831C7.69093 8.33908 6.8421 9.25394 6.22905 10.4329C5.62544 11.6118 5.32363 12.9794 5.32363 14.5167C5.32363 16.0541 5.63487 17.3556 6.24792 18.5251C6.86096 19.6946 7.72866 20.6001 8.85101 21.2508C9.96392 21.9016 11.2372 22.2223 12.6614 22.2223C14.0855 22.2223 15.4154 21.9299 16.4811 21.3451C17.5469 20.7604 18.4523 19.8644 19.2068 18.6477L22.555 21.6847C21.4232 23.2503 20.0085 24.4292 18.292 25.212C16.5754 25.9949 14.6137 26.391 12.4067 26.391C10.0017 26.391 7.87013 25.8817 6.0027 24.8537C4.13526 23.8256 2.68281 22.4015 1.64535 20.5812C0.607886 18.7515 0.0985852 16.6954 0.117449 14.3941C0.117449 12.074 0.636181 10.0273 1.68308 8.23533C2.72997 6.45278 4.19185 5.05692 6.06872 4.06662C7.94558 3.07631 10.1149 2.57644 12.5576 2.57644C16.4623 2.57644 19.5464 3.8214 21.8005 6.30188L18.6692 9.49915V9.50859ZM32.0431 8.75407C33.4861 8.75407 34.7688 9.02758 35.9006 9.58404C37.0323 10.1405 37.9095 10.9139 38.5319 11.9136C39.1544 12.9134 39.4751 14.0735 39.4751 15.3939V26.0797H35.9949L34.7688 23.8539C34.2218 24.6084 33.5427 25.2215 32.7127 25.6836C31.8922 26.1552 30.9302 26.391 29.8455 26.391C28.0536 26.391 26.6011 25.8911 25.5071 24.9008C24.413 23.9105 23.866 22.609 23.866 20.9962C23.866 19.9304 24.1678 18.9778 24.7714 18.1479C25.375 17.3085 26.2333 16.6671 27.3368 16.205C28.4403 15.7428 29.7135 15.5165 31.1565 15.5165C32.26 15.5165 33.3918 15.6297 34.5424 15.8654V15.3939C34.4575 14.4979 34.0897 13.7999 33.4484 13.3095C32.7976 12.8191 31.911 12.5739 30.7887 12.5739C29.3268 12.5739 28.063 12.9794 26.9972 13.7999L24.9317 10.9139C25.9126 10.1877 26.9689 9.64063 28.1102 9.28223C29.2514 8.92383 30.5623 8.75407 32.0431 8.75407ZM31.232 22.9485C32.1468 22.9485 32.9485 22.5995 33.6087 21.9016C34.2783 21.2037 34.6084 20.2888 34.6084 19.157C33.5238 18.9495 32.5807 18.8458 31.7884 18.8458C30.9302 18.8458 30.2417 19.0344 29.7041 19.4117C29.1759 19.7889 28.9024 20.2888 28.9024 20.9113C28.9024 21.5338 29.1099 22.0619 29.5154 22.4109C29.921 22.7693 30.4963 22.9391 31.2225 22.9391L31.232 22.9485ZM53.4431 8.75407C54.7635 8.75407 55.9236 9.02758 56.9328 9.58404C57.942 10.1405 58.7342 10.9233 59.3001 11.9325C59.866 12.9417 60.1489 14.1112 60.1489 15.4222V26.0703H55.2917V16.139C55.2917 15.1769 54.971 14.4036 54.3203 13.8094C53.6695 13.2152 52.8207 12.9134 51.7549 12.9134C50.6891 12.9134 49.8026 13.2058 49.1518 13.7905C48.501 14.3753 48.1804 15.1581 48.1804 16.139V26.0703H43.3231V9.07474H46.8034L48.0578 11.2723C48.6614 10.4612 49.4253 9.83869 50.3402 9.40484C51.255 8.98042 52.2925 8.7635 53.4431 8.7635V8.75407ZM71.0234 8.75407C72.4665 8.75407 73.7491 9.02758 74.8809 9.58404C76.0127 10.1405 76.8898 10.9139 77.5123 11.9136C78.1348 12.9134 78.4554 14.0735 78.4554 15.3939V26.0797H74.9752L73.7491 23.8539C73.2021 24.6084 72.523 25.2215 71.6931 25.6836C70.8725 26.1552 69.9105 26.391 68.8259 26.391C67.0339 26.391 65.5815 25.8911 64.4874 24.9008C63.3934 23.9105 62.8463 22.609 62.8463 20.9962C62.8463 19.9304 63.1481 18.9778 63.7518 18.1479C64.3554 17.3085 65.2136 16.6671 66.3171 16.205C67.4206 15.7428 68.6939 15.5165 70.1369 15.5165C71.2404 15.5165 72.3721 15.6297 73.5228 15.8654V15.3939C73.4379 14.4979 73.0701 13.7999 72.4287 13.3095C71.778 12.8191 70.8914 12.5739 69.769 12.5739C68.3072 12.5739 67.0433 12.9794 65.9776 13.7999L63.9121 10.9139C64.893 10.1877 65.9493 9.64063 67.0905 9.28223C68.2317 8.92383 69.5427 8.75407 71.0234 8.75407ZM70.2123 22.9485C71.1272 22.9485 71.9289 22.5995 72.5891 21.9016C73.2587 21.2037 73.5888 20.2888 73.5888 19.157C72.5042 18.9495 71.561 18.8458 70.7688 18.8458C69.9105 18.8458 69.222 19.0344 68.6844 19.4117C68.1563 19.7889 67.8827 20.2888 67.8827 20.9113C67.8827 21.5338 68.0902 22.0619 68.4958 22.4109C68.9014 22.7693 69.4767 22.9391 70.2029 22.9391L70.2123 22.9485ZM92.4895 8.75407C93.9891 8.75407 95.3567 9.13133 96.5922 9.89528C97.8277 10.6593 98.7992 11.7156 99.5254 13.0643C100.242 14.413 100.61 15.9409 100.61 17.6574C100.61 19.374 100.252 20.8547 99.5443 22.1845C98.8369 23.5144 97.856 24.5424 96.6111 25.2875C95.3661 26.0326 93.9986 26.4004 92.4895 26.4004C90.0279 26.4004 88.2076 25.4478 87.0381 23.5521L85.7837 26.0892H82.3035V1.64272H87.1607V11.5081C88.3491 9.66892 90.1222 8.75407 92.4895 8.75407ZM91.3955 22.2223C92.631 22.2223 93.6307 21.7979 94.423 20.949C95.2058 20.1002 95.6019 18.9873 95.6019 17.6103C95.6019 16.2333 95.2152 15.0732 94.4418 14.2149C93.6684 13.3472 92.6593 12.9134 91.4049 12.9134C90.1505 12.9134 89.1036 13.3378 88.3302 14.1961C87.5568 15.0543 87.1702 16.1767 87.1702 17.582C87.1702 18.9873 87.5568 20.1002 88.3302 20.949C89.1036 21.7979 90.1222 22.2223 91.4049 22.2223H91.3955ZM106.25 6.77345C105.411 6.77345 104.731 6.50937 104.194 5.97178C103.666 5.44361 103.392 4.76455 103.392 3.95344C103.392 3.14233 103.666 2.43497 104.203 1.89737C104.75 1.36921 105.429 1.0957 106.241 1.0957C107.052 1.0957 107.731 1.35978 108.259 1.89737C108.787 2.42554 109.061 3.11403 109.061 3.95344C109.061 4.79284 108.796 5.44361 108.259 5.97178C107.731 6.49994 107.052 6.77345 106.241 6.77345H106.25ZM103.807 9.06531H108.664V26.0797H103.807V9.07474V9.06531Z" fill="#00914C"/>
<path fill-rule="evenodd" clip-rule="evenodd" d="M135.667 14.6309C135.761 14.5554 135.855 14.4894 135.94 14.4328C136.053 14.3385 136.195 14.2159 136.374 14.0744C136.685 13.8292 137.025 13.584 137.421 13.3388C137.808 13.0936 138.204 12.8672 138.619 12.6597C139.024 12.4522 139.42 12.3579 139.788 12.3579C140.034 12.3202 140.307 12.3673 140.618 12.5088C140.93 12.6503 141.26 12.8295 141.627 13.0275C142.278 12.9898 142.929 12.9521 143.561 12.9332C144.193 12.9144 144.872 12.8389 145.589 12.7163C146.305 12.5937 147.069 12.4051 147.89 12.1598C148.644 11.9335 149.522 11.6034 150.521 11.1695C150.946 10.0472 151.38 8.95319 151.813 7.86857C150.342 7.95345 149.003 8.04777 147.796 8.17981C146.588 8.30242 145.579 8.40617 144.759 8.49105C143.74 8.61366 142.854 8.73627 142.118 8.85888C142.118 9.14182 142.08 9.36818 141.995 9.53795C141.91 9.69828 141.807 9.84919 141.684 9.97179C141.561 10.0944 141.373 10.1132 141.128 10.0283C139.251 10.1132 138.034 9.93407 137.478 9.50965C136.921 9.0758 136.723 8.61366 136.865 8.09493C137.006 7.58563 137.336 7.11405 137.845 6.6802C138.355 6.24636 138.732 6.05773 138.977 6.09545C139.1 6.09545 139.515 6.06716 140.232 6.00114C140.948 5.94455 141.92 5.85023 143.146 5.72762C144.372 5.60501 145.815 5.4824 147.466 5.35979C149.125 5.23719 150.955 5.13344 152.955 5.04856C153.605 3.66213 154.181 2.51148 154.671 1.61549C155.162 0.719497 155.511 0.247923 155.718 0.200765C156.369 -0.0444537 156.935 -0.0633167 157.406 0.134745C157.878 0.342237 158.236 0.634614 158.482 1.02131C158.727 1.408 158.849 1.80412 158.849 2.21911C158.849 2.63409 158.689 2.91704 158.359 3.07737C158.236 3.1151 158.067 3.30373 157.84 3.63383C157.614 3.96393 157.34 4.40721 157.01 4.98254C158.397 4.98254 159.51 4.99197 160.321 5.01083C161.141 5.02969 161.896 5.05799 162.594 5.10514C163.292 5.14287 164.065 5.20889 164.923 5.28434C165.782 5.36923 166.989 5.46354 168.545 5.59558C169.281 5.68047 169.865 5.82194 170.29 6.02943C170.724 6.23692 171.044 6.46328 171.271 6.7085C171.497 6.95372 171.61 7.20837 171.61 7.47245C171.61 7.73653 171.544 7.93459 171.422 8.0572C171.299 8.26469 171.007 8.40617 170.535 8.49105C170.063 8.57593 169.054 8.52878 167.498 8.36844C165.659 8.16095 164.254 8.01004 163.292 7.9063C162.33 7.80255 161.509 7.74596 160.839 7.71767C160.16 7.6988 159.472 7.68937 158.755 7.68937C158.038 7.68937 157.01 7.70824 155.662 7.75539C154.964 9.22671 154.237 10.8772 153.483 12.6974C152.728 14.5177 152.078 16.2625 151.549 17.9414C151.021 19.6202 150.653 21.1103 150.446 22.4213C150.238 23.7323 150.342 24.6283 150.757 25.1187C151.7 24.8735 152.719 24.1756 153.822 23.0344C154.926 21.8931 155.982 20.6388 156.982 19.2901C157.152 19.0637 157.321 18.8279 157.482 18.6016C157.576 18.196 157.727 17.781 157.925 17.3566C158.538 16.0645 159.34 14.895 160.321 13.8292C161.302 12.7635 162.292 11.9052 163.292 11.2544C164.291 10.6037 164.999 10.3301 165.404 10.4527C165.442 10.4905 165.508 10.5188 165.593 10.5188L165.649 10.4527C166.017 10.6131 166.366 10.7829 166.696 10.9432C166.979 11.1507 167.253 11.377 167.498 11.6223C167.743 11.8675 167.904 12.2164 167.988 12.6692C168.073 13.1219 168.121 13.5651 168.139 14.0179C168.158 14.4706 168.045 14.9516 167.8 15.4609C167.555 15.9702 167.159 16.5172 166.602 17.0831C166.046 17.6584 165.225 18.2903 164.122 18.9883C163.509 19.3184 162.829 19.4881 162.094 19.507C161.462 19.5258 160.934 19.507 160.509 19.4504L160.34 19.705C160.349 19.7616 160.368 19.8088 160.377 19.8465C160.34 20.2143 160.387 20.5539 160.528 20.8557C160.67 21.1669 160.858 21.431 161.085 21.6574C161.311 21.8837 161.556 22.0723 161.82 22.2421C162.084 22.4024 162.339 22.5062 162.584 22.5534C163.65 22.4685 164.819 21.9592 166.112 21.016C167.404 20.0729 168.639 19.0165 169.828 17.8282C171.176 16.4795 172.544 14.9421 173.94 13.2256C174.345 13.5086 174.694 13.8198 174.987 14.1499C175.232 14.4328 175.43 14.7346 175.571 15.0365C175.713 15.3477 175.685 15.6212 175.477 15.8664C175.439 15.9042 175.222 16.1871 174.836 16.6964C174.449 17.2057 173.93 17.8282 173.27 18.5638C172.619 19.2995 171.884 20.1012 171.063 20.9594C170.243 21.8177 169.384 22.6099 168.488 23.3173C167.592 24.0341 166.687 24.6283 165.791 25.0999C164.895 25.5714 164.056 25.7884 163.273 25.7412C162.905 25.7412 162.537 25.6846 162.169 25.562C162.132 25.6469 162.028 25.6846 161.858 25.6846C161.651 25.6469 161.358 25.5148 160.971 25.2885C160.585 25.0621 160.17 24.7509 159.745 24.3359C159.312 23.9304 158.906 23.4493 158.519 22.8929C158.453 22.7891 158.378 22.6854 158.312 22.5816C157.736 23.3456 157.152 24.0813 156.558 24.798C155.926 25.5526 155.294 26.2411 154.652 26.8541C154.02 27.4672 153.417 27.9576 152.841 28.3254C152.643 28.448 152.455 28.5612 152.266 28.6367C154.303 28.7687 156.359 28.9573 158.453 29.1837C159.802 29.3346 161.302 29.5609 162.961 29.8439C164.621 30.1268 166.951 30.5796 169.95 31.1926C171.374 31.5321 172.497 31.8905 173.336 32.2678C174.166 32.645 174.798 33.0034 175.232 33.343C175.666 33.6825 175.883 33.9843 175.883 34.2484C175.883 34.5125 175.76 34.6823 175.524 34.7483C175.288 34.8992 174.713 34.9086 173.808 34.8049C172.902 34.7011 170.941 34.2861 167.941 33.6071C164.386 32.8808 161.679 32.381 159.821 32.098C157.972 31.8151 156.388 31.6076 155.077 31.5133C149.559 31.1171 144.504 31.004 139.468 31.2115C134.431 31.419 129.404 31.9848 123.962 32.7299C121.982 33.0695 120.284 33.409 118.869 33.7202C118.869 34.0032 118.784 34.239 118.624 34.4276C118.464 34.6162 118.275 34.786 118.03 34.9463C117.794 35.1067 117.445 35.1727 116.964 35.1633C113.333 35.8706 110.985 36.1441 109.909 35.9461C109.381 35.8423 109.004 35.7009 108.806 35.5122C108.608 35.3236 108.58 35.0784 108.721 34.7954C108.862 34.5031 109.089 34.2107 109.4 33.9089C109.711 33.6071 110.117 33.2864 110.617 32.9657C111.598 32.3338 112.333 32.0037 112.805 31.9471C113.041 31.9 113.852 31.7208 115.229 31.419C116.615 31.1171 118.492 30.7305 120.859 30.3155C123.227 29.8911 126.009 29.4666 129.216 29.1365C134.243 28.6178 139.053 28.3537 143.844 28.3349C145.975 28.3349 148.107 28.382 150.257 28.4952C150.069 28.4103 149.88 28.316 149.682 28.2028C149.352 28.0142 149.05 27.8067 148.758 27.5615C148.475 27.3163 148.267 27.0333 148.145 26.7032C147.899 26.0524 147.73 25.2508 147.626 24.3076C147.522 23.3645 147.475 22.6288 147.475 22.1006C147.475 21.4027 147.598 20.5162 147.843 19.4315C148.088 18.3469 148.418 17.1585 148.824 15.8759C148.946 15.4892 149.078 15.1025 149.21 14.7064C148.465 14.9138 147.654 15.1025 146.777 15.2628C145.777 15.442 144.825 15.5835 143.929 15.6589C143.929 16.3946 143.863 17.0076 143.74 17.4981C143.655 17.781 143.599 18.0734 143.561 18.3563C142.986 19.6673 142.335 20.8463 141.599 21.912C140.948 22.808 140.128 23.6474 139.147 24.4302C138.166 25.2036 136.997 25.6375 135.648 25.7223C135.403 25.7223 135.195 25.6752 135.035 25.5714C134.875 25.4677 134.705 25.3356 134.544 25.1753C134.422 25.2602 134.299 25.2602 134.177 25.1753C133.318 24.8075 132.752 24.2416 132.488 23.4871C132.356 23.1192 132.271 22.7891 132.224 22.4779L129.819 25.2979C129.574 25.5431 129.282 25.8166 128.933 26.1279C128.584 26.4297 128.188 26.6843 127.735 26.8635C127.282 27.0522 126.782 27.1371 126.235 27.1371C125.688 27.1371 125.103 26.9484 124.49 26.5806C123.962 26.458 123.566 26.2316 123.321 25.9015C123.236 25.8167 123.198 25.7506 123.198 25.6846C123.198 25.6186 123.179 25.5526 123.132 25.4677C122.925 25.1376 122.774 24.8169 122.67 24.4868C122.566 24.1567 122.472 23.836 122.397 23.5059C122.151 22.2798 122.17 21.0726 122.463 19.8842C122.746 18.6959 123.179 17.5735 123.755 16.5078C122.368 17.649 120.916 18.9882 119.397 20.5256C117.879 22.0629 116.653 23.6851 115.719 25.4017C115.634 25.5243 115.455 25.6469 115.163 25.7695C114.88 25.8921 114.569 25.9676 114.238 25.9864C113.908 26.0053 113.606 25.9581 113.314 25.8355C113.031 25.7129 112.824 25.4677 112.701 25.0999C112.418 24.3265 112.38 23.3739 112.607 22.2515C112.833 21.1292 113.144 19.9691 113.559 18.7902C113.965 17.6018 114.389 16.4512 114.814 15.3194C115.248 14.1971 115.521 13.2256 115.644 12.4051C115.644 12.3202 115.776 12.2447 116.04 12.1598C116.304 12.075 116.615 12.0089 116.964 11.9429C117.313 11.8769 117.671 11.858 118.039 11.8769C118.407 11.8958 118.69 11.9712 118.898 12.0938C119.181 12.3013 119.331 12.5748 119.331 12.9238C119.331 13.2728 119.275 13.6312 119.152 13.999C119.03 14.3668 118.869 14.7158 118.662 15.0459C118.454 15.376 118.313 15.6212 118.228 15.7815C118.02 16.2343 117.775 16.7436 117.492 17.3189C117.209 17.8942 116.936 18.4884 116.691 19.1014C117.389 18.4035 118.19 17.6207 119.114 16.7436C120.039 15.8664 120.982 15.0176 121.963 14.1971C122.944 13.3765 123.915 12.6597 124.877 12.0467C125.839 11.4336 126.688 11.0281 127.424 10.8206C127.509 10.8206 127.631 10.8583 127.791 10.9432L127.914 10.8206C128.074 10.698 128.348 10.6697 128.716 10.7263C129.084 10.7829 129.433 10.9338 129.763 11.1601C130.093 11.3865 130.347 11.6694 130.527 12.0184C130.715 12.3673 130.677 12.7446 130.432 13.1502C130.102 13.7255 129.593 14.5366 128.895 15.6023C128.197 16.6681 127.527 17.7905 126.867 18.9788C126.537 19.6767 126.245 20.3275 125.981 20.9406C125.717 21.5536 125.5 22.0818 125.339 22.5345C125.339 22.6948 125.32 22.8457 125.273 22.9683C125.188 23.2984 125.236 23.4965 125.396 23.5814C125.641 23.8266 125.915 23.9304 126.226 23.8926C126.537 23.8549 126.811 23.77 127.056 23.6474C127.339 23.4871 127.631 23.2796 127.914 23.0344C129.055 21.6857 130.14 20.4596 131.168 19.3561C132.026 18.4129 132.884 17.4886 133.743 16.5644C134.601 15.6401 135.233 14.9987 135.648 14.6309H135.667ZM162.679 15.7532C162.688 15.8476 162.707 15.9419 162.716 16.0362C162.565 16.2814 162.414 16.5266 162.264 16.7624C162.763 16.6209 163.178 16.4606 163.518 16.2814C163.971 16.0362 164.301 15.7721 164.527 15.4797C164.753 15.1968 164.895 14.9138 164.961 14.6498C165.018 14.3857 165.036 14.1499 164.989 13.9424C164.461 14.3102 163.867 14.7629 163.207 15.2911C163.028 15.442 162.848 15.5929 162.679 15.7438V15.7532ZM135.233 22.5439C136.129 22.5062 136.921 22.2138 137.591 21.6857C138.27 21.1575 138.836 20.5539 139.307 19.8748C139.779 19.1957 140.166 18.5167 140.477 17.8187C140.788 17.1208 140.996 16.5738 141.118 16.1588C140.42 15.791 139.703 15.8759 138.968 16.404C138.232 16.9322 137.553 17.6113 136.94 18.4318C136.327 19.2523 135.846 20.0634 135.497 20.884C135.148 21.7045 135.035 22.2138 135.157 22.4213C135.157 22.5062 135.176 22.5439 135.214 22.5439H135.233Z" fill="#172A60"/>
</svg>
